<svg width="348" height="348" viewBox="0 0 348 348" fill="none" xmlns="http://www.w3.org/2000/svg">
<g id="maincoin" clip-path="url(#clip0_461_3)">
<path id="Vector" d="M248.306 234.489C296.941 174.149 299.102 95.1976 253.133 58.1467C207.165 21.0959 130.474 39.9756 81.8394 100.316C33.2049 160.656 31.0436 239.607 77.0122 276.658C122.981 313.709 199.672 294.829 248.306 234.489Z" fill="#FCEA2B"/>
<path id="Vector_2" d="M252.005 58.1453C233.755 43.9278 210.748 37.2505 187.722 39.4886C205.484 40.574 222.485 47.0863 236.427 58.1453C282.392 95.1976 280.237 174.145 231.604 234.485C201.927 271.305 161.81 292.649 124.594 295.307C165.822 298.396 213.3 276.51 247.177 234.485C295.81 174.145 297.975 95.1928 252.005 58.1453Z" fill="white"/>
<path id="Vector_3" d="M267.52 63.2301C265.099 61.2788 262.586 59.4433 259.99 57.7298C259.818 57.646 259.64 57.5733 259.458 57.5123C258.626 57.1005 257.695 56.9298 256.771 57.0193C255.822 57.1159 254.93 57.514 254.224 58.1551C254.066 58.2568 253.914 58.3682 253.77 58.4886C253.678 58.5853 253.649 58.7158 253.567 58.8173C253.484 58.9188 253.368 58.9816 253.291 59.0928C253.209 59.2654 253.138 59.4429 253.078 59.6244C252.661 60.4651 252.49 61.4069 252.585 62.3408C252.626 62.6416 252.696 62.9378 252.793 63.2253C252.968 63.831 253.283 64.3872 253.712 64.8493C253.814 65.0126 253.927 65.1692 254.05 65.3181C294.06 102.225 289.889 175.209 244.552 231.464C197.659 289.633 123.864 308.217 80.0547 272.9C79.7716 272.711 79.4685 272.554 79.1509 272.431L78.8851 272.291C78.4239 272.095 77.9344 271.974 77.4351 271.933C77.3046 271.924 77.1789 271.904 77.0484 271.9C76.0165 271.873 75.0078 272.208 74.1967 272.847C74.0333 272.931 73.8751 273.024 73.7231 273.127C73.6264 273.209 73.5926 273.325 73.5104 273.417C73.4331 273.499 73.3267 273.538 73.2542 273.625C73.1705 273.767 73.0947 273.914 73.0271 274.065C72.7909 274.402 72.6008 274.77 72.4616 275.157C72.4146 275.311 72.3758 275.468 72.3456 275.626C72.2301 276.095 72.1877 276.58 72.2199 277.062C72.2296 277.158 72.2489 277.245 72.2634 277.342C72.3313 277.867 72.4882 278.377 72.7274 278.85C72.7661 278.927 72.8144 278.995 72.8579 279.067C72.9999 279.381 73.1766 279.678 73.3847 279.952C76.7893 283.712 80.4837 287.2 84.4337 290.382C102.903 304.991 125.853 312.769 149.399 312.398C190.917 312.398 235.867 290.745 267.951 250.942C318.43 188.317 318.237 104.106 267.52 63.2301Z" fill="#F1B31C"/>
<path id="Vector_4" d="M99.8179 216.147C100.171 215.026 102.766 205.446 103.109 204.325C131.713 204.837 133.124 203.885 137.373 189.786C145.396 163.164 147.736 158.398 155.764 131.776C158.582 122.438 158.084 120.399 144.695 117.847L136.542 116.343C136.846 115.357 138.673 106.314 138.978 105.333C158.717 105.342 178.437 104.068 198.012 101.52L171.433 193.353C167.286 207.689 167.799 208.839 195.262 214.146C194.943 215.277 192.362 224.866 192.048 226.002L99.8179 216.147Z" fill="#F1B31C"/>
<g id="Group">
<path id="Vector_5" d="M257.312 61.7559C259.767 63.3702 262.157 65.1134 264.48 66.9855C313.2 106.252 313.064 187.253 264.185 247.897C215.305 308.541 136.179 325.883 87.4589 286.617C83.7062 283.593 80.1961 280.281 76.9609 276.709" stroke="black" stroke-width="0.888889" stroke-miterlimit="10"/>
<path id="Vector_6" d="M248.306 234.489C296.941 174.149 299.102 95.1976 253.133 58.1467C207.165 21.0959 130.474 39.9756 81.8394 100.316C33.2049 160.656 31.0436 239.607 77.0122 276.658C122.981 313.709 199.672 294.829 248.306 234.489Z" stroke="black" stroke-width="0.888889" stroke-miterlimit="10"/>
<path id="Vector_7" d="M248.303 234.49L264.185 247.902M231.594 252.591L245.591 267.637M213.909 267.303L225.402 283.36M194.508 280.247L203.556 296.41M261.174 216.413L278.037 228.081" stroke="black" stroke-width="0.888889" stroke-miterlimit="10"/>
<path id="Vector_8" d="M99.8179 216.147C100.171 215.026 102.766 205.446 103.109 204.325C131.713 204.837 133.124 203.885 137.373 189.786C145.396 163.164 147.736 158.398 155.764 131.776C158.582 122.438 158.084 120.399 144.695 117.847L136.542 116.343C136.846 115.357 138.673 106.314 138.978 105.333C158.717 105.342 178.437 104.068 198.012 101.52L171.433 193.353C167.286 207.689 167.799 208.839 195.262 214.146C194.943 215.277 192.362 224.866 192.048 226.002L99.8179 216.147Z" stroke="black" stroke-width="0.888889" stroke-linecap="round" stroke-linejoin="round"/>
</g>
</g>
<defs>
<clipPath id="clip0_461_3">
<rect width="348" height="348" fill="white"/>
</clipPath>
</defs>
</svg>
