<svg width="1000" height="1000" viewBox="0 0 1000 1000" fill="none" xmlns="http://www.w3.org/2000/svg">
<mask id="mask0_372_386" style="mask-type:luminance" maskUnits="userSpaceOnUse" x="0" y="0" width="1000" height="1000">
<path d="M1000 0H0V1000H1000V0Z" fill="white"/>
</mask>
<g mask="url(#mask0_372_386)">
<path d="M409.496 91.8067C363.399 106.01 321.721 171.211 319.037 230.384C316.383 288.916 353.73 300.774 358.622 363.101C363.796 429.002 325.994 466.081 298.573 534.083C257.536 635.848 241.841 801.663 312.995 890.656C395.66 994.045 583.444 978.609 640.313 889.234C691.943 808.093 604.684 714.699 662.642 598.513C710.778 502.015 796.925 514.412 828.489 418.865C849.582 355.016 836.532 272.537 797.683 225.013C738.034 152.048 664.952 219.452 529.912 145.298C469.625 112.192 449.235 79.5625 409.496 91.8067Z" fill="#E1EBFF"/>
<path d="M576.466 373.013C581.75 388.29 598.689 455.723 600.218 471.155C601.919 488.311 571.62 492.3 554.885 488.157C524.808 480.713 508.704 476.76 466.45 476.367C466.45 476.367 337 497.729 426.95 316.989C435.529 299.752 452.046 262.964 465.62 262.964L486.134 298.005L526.225 274.342C541.598 263.761 556.797 264.11 570.436 271.259" fill="#89CD9D"/>
<path d="M576.466 373.013C581.75 388.29 598.689 455.723 600.218 471.155C601.919 488.311 571.62 492.3 554.885 488.157C524.808 480.713 508.704 476.76 466.45 476.367C466.45 476.367 337 497.729 426.95 316.989C435.529 299.752 452.046 262.964 465.62 262.964L486.134 298.005L526.225 274.342C541.598 263.761 556.797 264.11 570.436 271.259" stroke="#5C5D64" stroke-width="4.15" stroke-miterlimit="10" stroke-linecap="round"/>
<path d="M581.805 499.225C553.77 575.158 570.648 721.829 588.848 810.04" stroke="black" stroke-width="4.15" stroke-miterlimit="10" stroke-linecap="round"/>
<path d="M494.649 566.89C485.352 657.036 500.526 746.141 497.969 833.003" stroke="black" stroke-width="4.15" stroke-miterlimit="10" stroke-linecap="round"/>
<path d="M425.525 520.859C410 613.999 438.427 696.108 441.284 783.732" stroke="black" stroke-width="4.15" stroke-miterlimit="10" stroke-linecap="round"/>
<path d="M430.642 849.568L423.069 856.228L389.204 871.465C383.268 874.136 380.189 880.991 382.575 887.046C383.381 889.094 384.776 891.083 387.061 892.748" stroke="black" stroke-width="4.15" stroke-miterlimit="10" stroke-linecap="round"/>
<path d="M505.815 882.014L503.198 861.317" stroke="black" stroke-width="4.15" stroke-miterlimit="10" stroke-linecap="round"/>
<path d="M507.647 900.193L505.815 882.013L384.723 892.959L386.053 905.117C386.311 907.969 388.832 910.072 391.685 909.815L507.647 900.193Z" stroke="black" stroke-width="4.15" stroke-miterlimit="10" stroke-linecap="round"/>
<path d="M423.069 856.228C423.069 856.228 436.659 866.589 442.935 861.67" stroke="black" stroke-width="4.15" stroke-miterlimit="10" stroke-linecap="round"/>
<path d="M442.935 809.622C442.935 826.866 418.025 830.478 419.192 836.547C422.383 853.143 456.72 858.414 468.968 860.294C480.339 862.038 497.311 863.192 518.158 859.17" stroke="black" stroke-width="4.15" stroke-miterlimit="10" stroke-linecap="round"/>
<path d="M585.279 875.646L586.022 896.493H466.784C464.658 894.629 463.449 892.524 462.831 890.413C461 884.167 464.683 877.615 470.835 875.49L505.934 863.364L514.075 857.413" fill="#EEF8FF"/>
<path d="M585.279 875.646L586.022 896.493H466.784C464.658 894.629 463.449 892.524 462.831 890.413C461 884.167 464.683 877.615 470.835 875.49L505.934 863.364L514.075 857.413" stroke="black" stroke-width="4.15" stroke-miterlimit="10" stroke-linecap="round"/>
<path d="M469.622 913.741C466.758 913.741 464.437 911.419 464.437 908.556V896.493H466.784H586.022V908.556C586.022 911.419 583.7 913.741 580.837 913.741H469.622Z" fill="#EEF8FF"/>
<path d="M469.622 913.741C466.758 913.741 464.437 911.419 464.437 908.556V896.493H466.784H586.022V908.556C586.022 911.419 583.7 913.741 580.837 913.741H469.622Z" stroke="black" stroke-width="4.15" stroke-miterlimit="10" stroke-linecap="round"/>
<path d="M505.933 863.364C505.933 863.364 518.536 874.906 525.229 870.571Z" fill="#EEF8FF"/>
<path d="M505.933 863.364C505.933 863.364 518.536 874.906 525.229 870.571" stroke="black" stroke-width="4.15" stroke-miterlimit="10" stroke-linecap="round"/>
<path d="M499.117 823.546C494.6 828.169 490.778 833.944 491.394 840.094C493.078 856.911 526.803 865.251 538.832 868.225C550 870.987 566.798 873.663 587.923 871.534" fill="#EEF8FF"/>
<path d="M499.117 823.546C494.6 828.169 490.778 833.944 491.394 840.094C493.078 856.911 526.803 865.251 538.832 868.225C550 870.987 566.798 873.663 587.923 871.534" stroke="black" stroke-width="4.15" stroke-miterlimit="10" stroke-linecap="round"/>
<path d="M492.371 477.617C495.061 494.628 498.122 505.854 502.093 525.448C437.729 545.041 396.246 554.232 327.412 572.665C323.177 550.833 322.528 538.118 318.227 517.197" fill="#89CD9D"/>
<path d="M492.371 477.617C495.061 494.628 498.122 505.854 502.093 525.448C437.729 545.041 396.246 554.232 327.412 572.665C323.177 550.833 322.528 538.118 318.227 517.197" stroke="black" stroke-width="4.15" stroke-miterlimit="10" stroke-linecap="round"/>
<path d="M314.307 517.941C313.988 541.881 315.256 552.609 315.261 574.379C272.927 568.127 266.514 562.316 218.79 554.279C220.012 530.096 219.303 534.309 219.455 511.825" fill="#89CD9D"/>
<path d="M314.307 517.941C313.988 541.881 315.256 552.609 315.261 574.379C272.927 568.127 266.514 562.316 218.79 554.279C220.012 530.096 219.303 534.309 219.455 511.825" stroke="black" stroke-width="4.15" stroke-miterlimit="10" stroke-linecap="round"/>
<path d="M319.691 353.536C374.942 356.324 411.725 342.586 473.204 338.452C470.251 384.483 473.396 421.646 493.176 480.014C439.983 500.448 370.642 509.364 314.307 517.942C277.419 515.165 256.342 514.603 219.455 511.826C215.493 458.499 207.153 410.965 195.427 377.69C230.605 368.146 284.513 363.079 319.691 353.536Z" fill="#89CD9D"/>
<path d="M319.691 353.536C374.942 356.324 411.725 342.586 473.204 338.452C470.251 384.483 473.396 421.646 493.176 480.014C439.983 500.448 370.642 509.364 314.307 517.942C277.419 515.165 256.342 514.603 219.455 511.826C215.493 458.499 207.153 410.965 195.427 377.69C230.605 368.146 284.513 363.079 319.691 353.536Z" stroke="black" stroke-width="4.15" stroke-miterlimit="10" stroke-linecap="round"/>
<path d="M195.426 377.689C230.807 378.494 258.608 380.001 291.307 378.71C299.78 430.22 305.994 464.917 314.467 516.426" fill="#89CD9D"/>
<path d="M195.426 377.689C230.807 378.494 258.608 380.001 291.307 378.71C299.78 430.22 305.994 464.917 314.467 516.426" stroke="black" stroke-width="4.15" stroke-miterlimit="10" stroke-linecap="round"/>
<path d="M291.646 379.024C348.512 367.113 416.338 350.362 473.203 338.451" stroke="black" stroke-width="4.15" stroke-miterlimit="10" stroke-linecap="round"/>
<path d="M242.436 378.944C242.436 378.944 270.307 514.63 265.827 514.294" stroke="black" stroke-width="4.15" stroke-miterlimit="10" stroke-linecap="round"/>
<path d="M264.984 481.36L256.273 482.432C254.595 448.595 247.477 410.981 247.477 410.981L256.188 409.909C256.188 409.909 262.044 447.334 264.984 481.36Z" fill="white"/>
<path d="M264.984 481.36L256.273 482.432C254.595 448.595 247.477 410.981 247.477 410.981L256.188 409.909C256.188 409.909 262.044 447.334 264.984 481.36Z" stroke="black" stroke-width="4.15" stroke-miterlimit="10" stroke-linecap="round"/>
<path d="M555.148 250.149C637.82 266.698 635.9 385.7 576.958 409.971C563.633 415.459 543.924 420.942 530.602 426.436" fill="#89CD9D"/>
<path d="M555.148 250.149C637.82 266.698 635.9 385.7 576.958 409.971C563.633 415.459 543.924 420.942 530.602 426.436" stroke="black" stroke-width="4.15" stroke-miterlimit="10" stroke-linecap="round"/>
<path d="M459.977 404.646C456.576 397.533 464.445 388.895 472.312 389.431C480.178 389.968 486.358 396.805 489.128 404.187C491.898 411.568 492.107 419.619 493.337 427.407C494.566 435.196 497.167 443.315 501.952 450.153C495.35 443.347 485.607 432.587 479.005 425.78" fill="black"/>
<path d="M459.977 404.646C456.576 397.533 464.445 388.895 472.312 389.431C480.178 389.968 486.358 396.805 489.128 404.187C491.898 411.568 492.107 419.619 493.337 427.407C494.566 435.196 497.167 443.315 501.952 450.153C495.35 443.347 485.607 432.587 479.005 425.78" stroke="black" stroke-width="4.15" stroke-miterlimit="10" stroke-linecap="round"/>
<path d="M475.561 398.252L439.295 408.576L422.99 406.424C417.872 405.749 414.153 411.173 416.629 415.703C416.629 415.703 388.079 417.992 393.987 437.2C398.699 452.516 429.296 466.834 442.276 431.986L489.619 421.762" fill="#EEF8FF"/>
<path d="M475.561 398.252L439.295 408.576L422.99 406.424C417.872 405.749 414.153 411.173 416.629 415.703C416.629 415.703 388.079 417.992 393.987 437.2C398.699 452.516 429.296 466.834 442.276 431.986L489.619 421.762" stroke="black" stroke-width="4.15" stroke-miterlimit="10" stroke-linecap="round"/>
<path d="M465.748 401.046L497.307 392.062L505.486 418.335L486.583 422.418" fill="#E1EBFF"/>
<path d="M465.748 401.046L497.307 392.062L505.486 418.335L486.583 422.418" stroke="black" stroke-width="4.15" stroke-miterlimit="10" stroke-linecap="square"/>
<path d="M464.055 392.134C466.412 390.319 469.362 389.23 472.311 389.431C480.178 389.967 486.358 396.805 489.128 404.187C491.899 411.569 492.107 419.619 493.337 427.408C494.566 435.195 497.166 443.315 501.953 450.154L501.398 449.338C505.95 456.834 525.961 452.879 538.241 456.129C529.103 427.287 528.018 390.965 499.204 373.236" fill="#89CD9D"/>
<path d="M464.055 392.134C466.412 390.319 469.362 389.23 472.311 389.431C480.178 389.967 486.358 396.805 489.128 404.187C491.899 411.569 492.107 419.619 493.337 427.408C494.566 435.195 497.166 443.315 501.953 450.154L501.398 449.338C505.95 456.834 525.961 452.879 538.241 456.129C529.103 427.287 528.018 390.965 499.204 373.236" stroke="black" stroke-width="4.15" stroke-miterlimit="10" stroke-linecap="round"/>
<path d="M461.824 393.969C477.205 378.422 502.188 374.734 518.825 366.199C546.325 354.01 546.973 350.815 539.569 318.99" stroke="black" stroke-width="4.15" stroke-miterlimit="10" stroke-linecap="round"/>
<path d="M521.6 433.318C522.971 435.791 522.077 438.908 519.604 440.279C517.13 441.65 514.015 440.756 512.644 438.282C511.273 435.809 512.166 432.693 514.639 431.322C517.112 429.951 520.229 430.845 521.6 433.318Z" stroke="black" stroke-width="4.15" stroke-miterlimit="10" stroke-linecap="round"/>
<path d="M508.86 169.196C515.073 175.552 515.856 177.377 514.967 189.017C513.445 208.949 514.053 222.958 520.579 241.852C527.106 260.746 540.697 277.987 559.426 284.974C578.154 291.961 601.905 286.475 612.768 269.694C623.631 252.914 616.556 226.27 597.578 219.989C577.301 213.277 566.931 193.198 566.994 171.839C567.009 167.031 563.191 162.497 558.451 161.692C553.711 160.887 508.86 169.196 508.86 169.196Z" fill="#E1EBFF"/>
<path d="M508.86 169.196C515.073 175.552 515.856 177.377 514.967 189.017C513.445 208.949 514.053 222.958 520.579 241.852C527.106 260.746 540.697 277.987 559.426 284.974C578.154 291.961 601.905 286.475 612.768 269.694C623.631 252.914 616.556 226.27 597.578 219.989C577.301 213.277 566.931 193.198 566.994 171.839C567.009 167.031 563.191 162.497 558.451 161.692C553.711 160.887 508.86 169.196 508.86 169.196Z" stroke="black" stroke-width="4.15" stroke-miterlimit="10" stroke-linecap="round"/>
<path d="M489.668 228.485C489.158 239.283 486.301 254.864 481.391 261.039" stroke="black" stroke-width="4.15" stroke-miterlimit="10" stroke-linecap="round"/>
<path d="M460.542 185.954C463.066 196.638 462.753 195.314 465.277 205.998C468.259 218.62 480.731 228.311 493.697 228.082C506.664 227.852 518.786 217.727 521.321 205.008" stroke="black" stroke-width="4.15" stroke-miterlimit="10" stroke-linecap="round"/>
<path d="M429.147 165.155L464.612 153.903C467.234 130.887 490.24 112.191 513.307 114.332C536.374 116.473 555.547 139.084 553.888 162.19C501.798 178.682 473.904 178.423 457.581 174.46C439.836 170.15 435.766 161.462 429.147 165.155C424.231 167.898 423.155 175.135 426.03 179.975C428.904 184.815 434.661 187.356 440.273 187.784C445.886 188.213 454.849 186.336 460.313 184.981L457.581 174.46" fill="#89CD9D"/>
<path d="M429.147 165.155L464.612 153.903C467.234 130.887 490.24 112.191 513.307 114.332C536.374 116.473 555.547 139.084 553.888 162.19C501.798 178.682 473.904 178.423 457.581 174.46M429.147 165.155C435.766 161.462 439.836 170.15 457.581 174.46M429.147 165.155C424.231 167.898 423.155 175.135 426.03 179.975C428.904 184.815 434.661 187.356 440.273 187.784C445.886 188.213 454.849 186.336 460.313 184.981L457.581 174.46" stroke="black" stroke-width="4.15" stroke-miterlimit="10" stroke-linecap="round"/>
<path d="M459.914 174.983C459.111 174.817 458.334 174.642 457.581 174.46C439.836 170.15 435.766 161.462 429.147 165.155C424.231 167.898 423.155 175.134 426.029 179.975C428.904 184.815 434.661 187.356 440.273 187.784C445.886 188.214 454.849 186.336 460.313 184.98L457.581 174.46" fill="#89CD9D"/>
<path d="M459.914 174.983C459.111 174.817 458.334 174.642 457.581 174.46M457.581 174.46C439.836 170.15 435.766 161.462 429.147 165.155C424.231 167.898 423.155 175.134 426.029 179.975C428.904 184.815 434.661 187.356 440.273 187.784C445.886 188.214 454.849 186.336 460.313 184.98L457.581 174.46Z" stroke="black" stroke-width="4.15" stroke-miterlimit="10" stroke-linecap="round"/>
<path d="M468.646 194.065C468.646 194.065 475.071 197.247 479.824 195.194Z" fill="#89CD9D"/>
<path d="M468.646 194.065C468.646 194.065 475.071 197.247 479.824 195.194" stroke="black" stroke-width="4.15" stroke-miterlimit="10" stroke-linecap="round"/>
<path d="M487.585 195.275C487.585 195.275 493.971 196.797 498.724 194.745Z" fill="#89CD9D"/>
<path d="M487.585 195.275C487.585 195.275 493.971 196.797 498.724 194.745" stroke="black" stroke-width="4.15" stroke-miterlimit="10" stroke-linecap="round"/>
<path d="M491.736 136.163C490.176 135.911 488.907 136.084 487.789 137.274C486.953 138.163 486.36 139.451 487.443 140.39C488.936 141.685 492.091 141.406 492.596 143.829C492.912 145.348 491.108 145.576 490.029 145.293C488.842 144.982 488.04 144.117 487.517 143.055C487.332 142.679 485.453 144.154 485.799 144.858C487.528 148.371 492.109 147.71 493.985 144.674C494.883 143.218 494.534 141.58 493.208 140.503C492.49 139.92 491.578 139.623 490.729 139.295C490.408 139.171 489.068 138.888 488.995 138.427C488.88 137.703 489.621 137.964 490.251 138.066C490.934 138.176 492.317 136.257 491.736 136.163Z" fill="white"/>
<path d="M484.9 136.421L482.364 136.481C482.172 136.486 481.96 136.618 481.807 136.714C481.543 136.882 481.28 137.099 481.065 137.324C480.898 137.499 480.69 137.697 480.605 137.928C480.572 138.014 480.507 138.202 480.676 138.198L483.211 138.138C483.404 138.133 483.616 138.002 483.77 137.905C484.033 137.738 484.295 137.52 484.511 137.295C484.677 137.12 484.885 136.921 484.971 136.691C485.003 136.604 485.068 136.417 484.9 136.421Z" fill="white"/>
<path d="M483.176 140.162L477.199 140.304C476.725 140.316 476.206 140.828 475.9 141.147C475.831 141.219 475.145 142.03 475.511 142.022L481.488 141.879C481.963 141.868 482.482 141.356 482.787 141.036C482.856 140.964 483.542 140.153 483.176 140.162Z" fill="white"/>
<path d="M483.746 144.423L480.304 144.504C480.113 144.509 479.901 144.641 479.747 144.738C479.484 144.905 479.222 145.122 479.006 145.347C478.839 145.522 478.631 145.721 478.545 145.951C478.514 146.037 478.448 146.226 478.617 146.222L482.058 146.14C482.25 146.135 482.462 146.004 482.616 145.906C482.879 145.739 483.141 145.522 483.357 145.296C483.524 145.122 483.732 144.923 483.817 144.693C483.849 144.606 483.915 144.418 483.746 144.423Z" fill="white"/>
<path d="M358 544C358 544 402 610 361 640C330.546 662.283 182 528 148 606C114 684 292.393 828.098 329 808C380 780 336 684 296 727C234.005 793.645 116 853 187 668C257.57 484.12 113 539 87 567" stroke="black" stroke-width="2" stroke-dasharray="12 1000"/>
<path d="M338 550C338 550 382 616 341 646C310.546 668.283 162 534 128 612C94 690 272.393 834.098 309 814C360 786 316 690 276 733C214.005 799.645 96 859 167 674C237.57 490.12 93 545 67 573" stroke="black" stroke-width="2" stroke-dasharray="30 1000"/>
</g>
</svg>
